<?xml version="1.0" encoding="UTF-8"?>
<svg xmlns="http://www.w3.org/2000/svg" xmlns:xlink="http://www.w3.org/1999/xlink" width="746.8pt" height="254.36pt" viewBox="0 0 746.8 254.36" version="1.1">
<defs>
<clipPath id="clip1">
  <path d="M 524 208 L 559 208 L 559 254.359375 L 524 254.359375 Z M 524 208 "/>
</clipPath>
<clipPath id="clip2">
  <path d="M 737 195 L 746.800781 195 L 746.800781 243 L 737 243 Z M 737 195 "/>
</clipPath>
</defs>
<g id="surface1">
<path style=" stroke:none;fill-rule:nonzero;fill:rgb(93.299866%,17.999268%,30.599976%);fill-opacity:1;" d="M 42.257813 173.984375 L 42.257813 168.636719 C 47.523438 165.761719 51.089844 160.179688 51.089844 153.757813 C 51.089844 144.40625 43.503906 136.824219 34.152344 136.824219 C 24.796875 136.824219 17.21875 144.40625 17.21875 153.757813 C 17.21875 160.175781 20.785156 165.761719 26.046875 168.632813 L 26.046875 173.984375 L 0 173.984375 L 0 242.398438 L 26.046875 242.398438 L 26.046875 235.640625 C 20.785156 232.765625 17.21875 227.183594 17.21875 220.765625 C 17.21875 211.410156 24.796875 203.828125 34.152344 203.828125 C 43.503906 203.828125 51.089844 211.410156 51.089844 220.765625 C 51.089844 227.183594 47.523438 232.765625 42.257813 235.640625 L 42.257813 242.398438 L 68.300781 242.398438 L 68.300781 173.984375 L 42.257813 173.984375 "/>
<path style=" stroke:none;fill-rule:nonzero;fill:rgb(100%,83.499146%,1.599121%);fill-opacity:1;" d="M 42.257813 37.152344 L 42.257813 31.808594 C 47.523438 28.929688 51.089844 23.351563 51.089844 16.933594 C 51.089844 7.574219 43.503906 0 34.152344 0 C 24.796875 0 17.21875 7.574219 17.21875 16.933594 C 17.21875 23.351563 20.785156 28.929688 26.046875 31.800781 L 26.046875 37.152344 L 0 37.152344 L 0 105.574219 L 26.046875 105.574219 L 26.046875 98.808594 C 20.785156 95.941406 17.21875 90.351563 17.21875 83.941406 C 17.21875 74.585938 24.796875 67.003906 34.152344 67.003906 C 43.503906 67.003906 51.089844 74.585938 51.089844 83.941406 C 51.089844 90.355469 47.523438 95.941406 42.257813 98.808594 L 42.257813 105.574219 L 68.300781 105.574219 L 68.300781 37.152344 L 42.257813 37.152344 "/>
<path style=" stroke:none;fill-rule:nonzero;fill:rgb(0.39978%,39.99939%,69.799805%);fill-opacity:1;" d="M 110.558594 105.574219 L 110.558594 100.21875 C 115.820313 97.347656 119.386719 91.761719 119.386719 85.34375 C 119.386719 75.992188 111.808594 68.410156 102.453125 68.410156 C 93.101563 68.410156 85.519531 75.992188 85.519531 85.34375 C 85.519531 91.761719 89.085938 97.347656 94.351563 100.21875 L 94.351563 105.574219 L 68.300781 105.574219 L 68.300781 173.984375 L 94.351563 173.984375 L 94.351563 167.222656 C 89.085938 164.351563 85.519531 158.769531 85.519531 152.351563 C 85.519531 142.996094 93.101563 135.421875 102.453125 135.421875 C 111.808594 135.421875 119.386719 142.996094 119.386719 152.351563 C 119.386719 158.769531 115.820313 164.351563 110.558594 167.226563 L 110.558594 173.984375 L 136.601563 173.984375 L 136.601563 105.574219 L 110.558594 105.574219 "/>
<path style=" stroke:none;fill-rule:nonzero;fill:rgb(36.499023%,36.898804%,39.199829%);fill-opacity:1;" d="M 186.132813 58.644531 L 194.671875 58.644531 L 209.460938 98.078125 L 224.3125 58.644531 L 232.863281 58.644531 L 232.863281 105.574219 L 226.941406 105.574219 L 226.941406 66.53125 L 226.808594 66.53125 L 212.152344 105.574219 L 206.835938 105.574219 L 192.175781 66.53125 L 192.042969 66.53125 L 192.042969 105.574219 L 186.132813 105.574219 L 186.132813 58.644531 "/>
<path style=" stroke:none;fill-rule:nonzero;fill:rgb(36.499023%,36.898804%,39.199829%);fill-opacity:1;" d="M 240.027344 71.589844 L 245.613281 71.589844 L 245.613281 105.574219 L 240.027344 105.574219 Z M 245.613281 65.476563 L 240.027344 65.476563 L 240.027344 58.644531 L 245.613281 58.644531 L 245.613281 65.476563 "/>
<path style=" stroke:none;fill-rule:nonzero;fill:rgb(36.499023%,36.898804%,39.199829%);fill-opacity:1;" d="M 251.660156 71.589844 L 256.917969 71.589844 L 256.917969 76.976563 L 257.050781 76.976563 C 259.414063 72.773438 263.226563 70.800781 268.097656 70.800781 C 277.03125 70.800781 279.792969 75.929688 279.792969 83.21875 L 279.792969 105.574219 L 274.203125 105.574219 L 274.203125 82.566406 C 274.203125 78.429688 271.574219 75.734375 267.300781 75.734375 C 260.53125 75.734375 257.25 80.265625 257.25 86.378906 L 257.25 105.574219 L 251.660156 105.574219 L 251.660156 71.589844 "/>
<path style=" stroke:none;fill-rule:nonzero;fill:rgb(36.499023%,36.898804%,39.199829%);fill-opacity:1;" d="M 285.90625 71.589844 L 291.496094 71.589844 L 291.496094 105.574219 L 285.90625 105.574219 Z M 291.496094 65.476563 L 285.90625 65.476563 L 285.90625 58.644531 L 291.496094 58.644531 L 291.496094 65.476563 "/>
<path style=" stroke:none;fill-rule:nonzero;fill:rgb(36.499023%,36.898804%,39.199829%);fill-opacity:1;" d="M 300.960938 94.859375 C 301.152344 99.851563 305.496094 101.429688 310.09375 101.429688 C 313.578125 101.429688 318.308594 100.640625 318.308594 96.367188 C 318.308594 92.03125 312.785156 91.308594 307.207031 90.058594 C 301.683594 88.808594 296.09375 86.972656 296.09375 80.460938 C 296.09375 73.628906 302.867188 70.800781 308.773438 70.800781 C 316.277344 70.800781 322.253906 73.167969 322.714844 81.449219 L 317.125 81.449219 C 316.730469 77.109375 312.921875 75.734375 309.234375 75.734375 C 305.890625 75.734375 302.011719 76.648438 302.011719 80.070313 C 302.011719 84.074219 307.925781 84.738281 313.121094 85.988281 C 318.707031 87.230469 324.226563 89.078125 324.226563 95.648438 C 324.226563 103.730469 316.660156 106.359375 309.765625 106.359375 C 302.140625 106.359375 295.699219 103.269531 295.371094 94.859375 L 300.960938 94.859375 "/>
<path style=" stroke:none;fill-rule:nonzero;fill:rgb(36.499023%,36.898804%,39.199829%);fill-opacity:1;" d="M 335.527344 71.589844 L 342.304688 71.589844 L 342.304688 76.515625 L 335.527344 76.515625 L 335.527344 97.617188 C 335.527344 100.179688 336.253906 100.640625 339.738281 100.640625 L 342.304688 100.640625 L 342.304688 105.574219 L 338.027344 105.574219 C 332.246094 105.574219 329.945313 104.390625 329.945313 98.144531 L 329.945313 76.515625 L 324.164063 76.515625 L 324.164063 71.589844 L 329.945313 71.589844 L 329.945313 61.402344 L 335.527344 61.402344 L 335.527344 71.589844 "/>
<path style=" stroke:none;fill-rule:nonzero;fill:rgb(36.499023%,36.898804%,39.199829%);fill-opacity:1;" d="M 369.449219 85.324219 C 369.179688 80.007813 365.179688 75.734375 359.648438 75.734375 C 353.804688 75.734375 350.324219 80.136719 349.929688 85.324219 Z M 374.835938 94.789063 C 373.324219 102.285156 367.933594 106.359375 360.3125 106.359375 C 349.46875 106.359375 344.339844 98.867188 344.007813 88.480469 C 344.007813 78.292969 350.710938 70.800781 359.984375 70.800781 C 372.011719 70.800781 375.691406 82.039063 375.359375 90.257813 L 349.929688 90.257813 C 349.730469 96.175781 353.078125 101.429688 360.507813 101.429688 C 365.105469 101.429688 368.332031 99.195313 369.316406 94.789063 L 374.835938 94.789063 "/>
<path style=" stroke:none;fill-rule:nonzero;fill:rgb(36.499023%,36.898804%,39.199829%);fill-opacity:1;" d="M 378.316406 71.589844 L 383.578125 71.589844 L 383.578125 78.757813 L 383.710938 78.757813 C 386.40625 73.300781 390.152344 70.605469 396.195313 70.800781 L 396.195313 76.71875 C 387.195313 76.71875 383.910156 81.84375 383.910156 90.453125 L 383.910156 105.574219 L 378.316406 105.574219 L 378.316406 71.589844 "/>
<path style=" stroke:none;fill-rule:nonzero;fill:rgb(36.499023%,36.898804%,39.199829%);fill-opacity:1;" d="M 398.109375 71.589844 L 403.691406 71.589844 L 403.691406 105.574219 L 398.109375 105.574219 Z M 403.691406 65.476563 L 398.109375 65.476563 L 398.109375 58.644531 L 403.691406 58.644531 L 403.691406 65.476563 "/>
<path style=" stroke:none;fill-rule:nonzero;fill:rgb(36.499023%,36.898804%,39.199829%);fill-opacity:1;" d="M 424.394531 101.429688 C 430.246094 101.429688 434.976563 96.828125 434.976563 88.617188 C 434.976563 80.332031 430.246094 75.734375 424.394531 75.734375 C 418.546875 75.734375 413.816406 80.332031 413.816406 88.617188 C 413.816406 96.828125 418.546875 101.429688 424.394531 101.429688 Z M 424.394531 70.800781 C 435.175781 70.800781 440.894531 78.621094 440.894531 88.617188 C 440.894531 98.539063 435.175781 106.359375 424.394531 106.359375 C 413.613281 106.359375 407.898438 98.539063 407.898438 88.617188 C 407.898438 78.621094 413.613281 70.800781 424.394531 70.800781 "/>
<path style=" stroke:none;fill-rule:nonzero;fill:rgb(36.499023%,36.898804%,39.199829%);fill-opacity:1;" d="M 199.664063 169.84375 C 207.160156 169.84375 210.050781 163.402344 210.050781 157.027344 C 210.050781 150.320313 207.03125 144.144531 199.34375 144.144531 C 191.714844 144.144531 189.152344 150.652344 189.152344 157.289063 C 189.152344 163.667969 192.441406 169.84375 199.664063 169.84375 Z M 215.441406 173.984375 L 209.855469 173.984375 L 209.855469 169.386719 L 209.726563 169.386719 C 207.886719 173.128906 203.546875 174.773438 198.878906 174.773438 C 188.429688 174.773438 183.238281 166.492188 183.238281 156.894531 C 183.238281 147.300781 188.367188 139.214844 198.746094 139.214844 C 202.230469 139.214844 207.226563 140.53125 209.726563 144.539063 L 209.855469 144.539063 L 209.855469 127.058594 L 215.441406 127.058594 L 215.441406 173.984375 "/>
<path style=" stroke:none;fill-rule:nonzero;fill:rgb(36.499023%,36.898804%,39.199829%);fill-opacity:1;" d="M 245.019531 153.746094 C 244.761719 148.417969 240.753906 144.144531 235.230469 144.144531 C 229.378906 144.144531 225.894531 148.550781 225.5 153.746094 Z M 250.414063 163.199219 C 248.898438 170.695313 243.511719 174.773438 235.882813 174.773438 C 225.042969 174.773438 219.914063 167.277344 219.585938 156.894531 C 219.585938 146.710938 226.292969 139.214844 235.5625 139.214844 C 247.585938 139.214844 251.265625 150.457031 250.9375 158.671875 L 225.5 158.671875 C 225.308594 164.585938 228.65625 169.84375 236.082031 169.84375 C 240.683594 169.84375 243.90625 167.605469 244.890625 163.199219 L 250.414063 163.199219 "/>
<path style=" stroke:none;fill-rule:nonzero;fill:rgb(36.499023%,36.898804%,39.199829%);fill-opacity:1;" d="M 270.0625 127.058594 L 280.378906 127.058594 L 280.378906 173.984375 L 270.0625 173.984375 L 270.0625 127.058594 "/>
<path style=" stroke:none;fill-rule:nonzero;fill:rgb(36.499023%,36.898804%,39.199829%);fill-opacity:1;" d="M 285.839844 140.003906 L 294.710938 140.003906 L 294.710938 144.734375 L 294.910156 144.734375 C 297.273438 140.925781 301.347656 139.082031 305.296875 139.082031 C 315.21875 139.082031 317.71875 144.675781 317.71875 153.082031 L 317.71875 173.984375 L 308.390625 173.984375 L 308.390625 154.792969 C 308.390625 149.207031 306.746094 146.445313 302.402344 146.445313 C 297.339844 146.445313 295.175781 149.273438 295.175781 156.171875 L 295.175781 173.984375 L 285.839844 173.984375 L 285.839844 140.003906 "/>
<path style=" stroke:none;fill-rule:nonzero;fill:rgb(36.499023%,36.898804%,39.199829%);fill-opacity:1;" d="M 345.320313 151.964844 C 344.734375 148.15625 342.304688 146.117188 338.429688 146.117188 C 332.441406 146.117188 330.46875 152.164063 330.46875 157.160156 C 330.46875 162.019531 332.375 167.867188 338.226563 167.867188 C 342.5625 167.867188 345.0625 165.109375 345.652344 160.96875 L 354.65625 160.96875 C 353.472656 169.972656 347.234375 174.902344 338.292969 174.902344 C 328.039063 174.902344 321.140625 167.675781 321.140625 157.488281 C 321.140625 146.90625 327.449219 139.082031 338.492188 139.082031 C 346.503906 139.082031 353.871094 143.289063 354.460938 151.964844 L 345.320313 151.964844 "/>
<path style=" stroke:none;fill-rule:nonzero;fill:rgb(36.499023%,36.898804%,39.199829%);fill-opacity:1;" d="M 357.550781 127.058594 L 366.886719 127.058594 L 366.886719 173.984375 L 357.550781 173.984375 L 357.550781 127.058594 "/>
<path style=" stroke:none;fill-rule:nonzero;fill:rgb(36.499023%,36.898804%,39.199829%);fill-opacity:1;" d="M 403.496094 173.984375 L 394.621094 173.984375 L 394.621094 169.253906 L 394.425781 169.253906 C 392.054688 173.0625 387.984375 174.902344 384.042969 174.902344 C 374.113281 174.902344 371.617188 169.316406 371.617188 160.902344 L 371.617188 140.003906 L 380.953125 140.003906 L 380.953125 159.199219 C 380.953125 164.777344 382.597656 167.542969 386.929688 167.542969 C 391.992188 167.542969 394.164063 164.714844 394.164063 157.8125 L 394.164063 140.003906 L 403.496094 140.003906 L 403.496094 173.984375 "/>
<path style=" stroke:none;fill-rule:nonzero;fill:rgb(36.499023%,36.898804%,39.199829%);fill-opacity:1;" d="M 415.195313 162.941406 C 415.265625 167.019531 418.679688 168.660156 422.355469 168.660156 C 425.054688 168.660156 428.472656 167.605469 428.472656 164.324219 C 428.472656 161.496094 424.59375 160.507813 417.890625 159.066406 C 412.503906 157.882813 407.113281 155.976563 407.113281 149.992188 C 407.113281 141.316406 414.605469 139.082031 421.894531 139.082031 C 429.324219 139.082031 436.160156 141.582031 436.886719 149.925781 L 428.015625 149.925781 C 427.75 146.3125 424.988281 145.328125 421.636719 145.328125 C 419.535156 145.328125 416.441406 145.722656 416.441406 148.484375 C 416.441406 151.832031 421.703125 152.292969 427.027344 153.542969 C 432.476563 154.792969 437.804688 156.765625 437.804688 163.074219 C 437.804688 172.011719 430.046875 174.902344 422.296875 174.902344 C 414.40625 174.902344 406.71875 171.945313 406.316406 162.941406 L 415.195313 162.941406 "/>
<path style=" stroke:none;fill-rule:nonzero;fill:rgb(36.499023%,36.898804%,39.199829%);fill-opacity:1;" d="M 440.898438 140.003906 L 450.230469 140.003906 L 450.230469 173.984375 L 440.898438 173.984375 Z M 450.230469 134.75 L 440.898438 134.75 L 440.898438 127.058594 L 450.230469 127.058594 L 450.230469 134.75 "/>
<path style=" stroke:none;fill-rule:nonzero;fill:rgb(36.499023%,36.898804%,39.199829%);fill-opacity:1;" d="M 473.039063 135.796875 L 466.527344 135.796875 L 472.84375 126.464844 L 483.15625 126.464844 Z M 471.457031 167.867188 C 477.835938 167.867188 479.738281 162.417969 479.738281 157.027344 C 479.738281 151.570313 477.835938 146.117188 471.457031 146.117188 C 465.152344 146.117188 463.246094 151.570313 463.246094 157.027344 C 463.246094 162.417969 465.152344 167.867188 471.457031 167.867188 Z M 471.457031 139.082031 C 482.171875 139.082031 489.074219 146.183594 489.074219 157.027344 C 489.074219 167.808594 482.171875 174.902344 471.457031 174.902344 C 460.8125 174.902344 453.910156 167.808594 453.910156 157.027344 C 453.910156 146.183594 460.8125 139.082031 471.457031 139.082031 "/>
<path style=" stroke:none;fill-rule:nonzero;fill:rgb(36.499023%,36.898804%,39.199829%);fill-opacity:1;" d="M 492.492188 140.003906 L 501.359375 140.003906 L 501.359375 144.734375 L 501.5625 144.734375 C 503.929688 140.925781 508.003906 139.082031 511.949219 139.082031 C 521.875 139.082031 524.375 144.675781 524.375 153.082031 L 524.375 173.984375 L 515.035156 173.984375 L 515.035156 154.792969 C 515.035156 149.207031 513.394531 146.445313 509.058594 146.445313 C 503.992188 146.445313 501.824219 149.273438 501.824219 156.171875 L 501.824219 173.984375 L 492.492188 173.984375 L 492.492188 140.003906 "/>
<path style=" stroke:none;fill-rule:nonzero;fill:rgb(36.499023%,36.898804%,39.199829%);fill-opacity:1;" d="M 185.40625 195.46875 L 220.503906 195.46875 L 220.503906 204.144531 L 195.726563 204.144531 L 195.726563 214.199219 L 218.46875 214.199219 L 218.46875 222.222656 L 195.726563 222.222656 L 195.726563 233.722656 L 221.027344 233.722656 L 221.027344 242.398438 L 185.40625 242.398438 L 185.40625 195.46875 "/>
<path style=" stroke:none;fill-rule:nonzero;fill:rgb(36.499023%,36.898804%,39.199829%);fill-opacity:1;" d="M 247.519531 220.378906 C 246.925781 216.566406 244.496094 214.527344 240.621094 214.527344 C 234.636719 214.527344 232.664063 220.578125 232.664063 225.570313 C 232.664063 230.4375 234.570313 236.285156 240.421875 236.285156 C 244.761719 236.285156 247.261719 233.523438 247.84375 229.382813 L 256.851563 229.382813 C 255.667969 238.390625 249.425781 243.316406 240.484375 243.316406 C 230.238281 243.316406 223.335938 236.089844 223.335938 225.902344 C 223.335938 215.316406 229.640625 207.496094 240.683594 207.496094 C 248.703125 207.496094 256.0625 211.699219 256.65625 220.378906 L 247.519531 220.378906 "/>
<path style=" stroke:none;fill-rule:nonzero;fill:rgb(36.499023%,36.898804%,39.199829%);fill-opacity:1;" d="M 275.984375 236.285156 C 282.359375 236.285156 284.261719 230.832031 284.261719 225.4375 C 284.261719 219.980469 282.359375 214.527344 275.984375 214.527344 C 269.667969 214.527344 267.765625 219.980469 267.765625 225.4375 C 267.765625 230.832031 269.667969 236.285156 275.984375 236.285156 Z M 275.984375 207.496094 C 286.695313 207.496094 293.59375 214.597656 293.59375 225.4375 C 293.59375 236.21875 286.695313 243.316406 275.984375 243.316406 C 265.335938 243.316406 258.433594 236.21875 258.433594 225.4375 C 258.433594 214.597656 265.335938 207.496094 275.984375 207.496094 "/>
<path style=" stroke:none;fill-rule:nonzero;fill:rgb(36.499023%,36.898804%,39.199829%);fill-opacity:1;" d="M 297.011719 208.421875 L 305.890625 208.421875 L 305.890625 213.152344 L 306.082031 213.152344 C 308.453125 209.339844 312.527344 207.496094 316.46875 207.496094 C 326.394531 207.496094 328.894531 213.085938 328.894531 221.5 L 328.894531 242.398438 L 319.558594 242.398438 L 319.558594 223.203125 C 319.558594 217.617188 317.917969 214.855469 313.582031 214.855469 C 308.515625 214.855469 306.347656 217.683594 306.347656 224.585938 L 306.347656 242.398438 L 297.011719 242.398438 L 297.011719 208.421875 "/>
<path style=" stroke:none;fill-rule:nonzero;fill:rgb(36.499023%,36.898804%,39.199829%);fill-opacity:1;" d="M 351.4375 204.210938 L 344.929688 204.210938 L 351.242188 194.878906 L 361.5625 194.878906 Z M 349.859375 236.285156 C 356.234375 236.285156 358.140625 230.832031 358.140625 225.4375 C 358.140625 219.980469 356.234375 214.527344 349.859375 214.527344 C 343.550781 214.527344 341.640625 219.980469 341.640625 225.4375 C 341.640625 230.832031 343.550781 236.285156 349.859375 236.285156 Z M 349.859375 207.496094 C 360.574219 207.496094 367.472656 214.597656 367.472656 225.4375 C 367.472656 236.21875 360.574219 243.316406 349.859375 243.316406 C 339.214844 243.316406 332.3125 236.21875 332.3125 225.4375 C 332.3125 214.597656 339.214844 207.496094 349.859375 207.496094 "/>
<path style=" stroke:none;fill-rule:nonzero;fill:rgb(36.499023%,36.898804%,39.199829%);fill-opacity:1;" d="M 371.15625 208.421875 L 379.96875 208.421875 L 379.96875 213.019531 L 380.097656 213.019531 C 382.53125 209.535156 386.074219 207.496094 390.484375 207.496094 C 394.75 207.496094 398.566406 209.074219 400.402344 213.152344 C 402.378906 210.191406 405.929688 207.496094 410.65625 207.496094 C 417.890625 207.496094 423.085938 210.851563 423.085938 219.65625 L 423.085938 242.398438 L 413.75 242.398438 L 413.75 223.140625 C 413.75 218.605469 413.351563 214.855469 408.03125 214.855469 C 402.769531 214.855469 401.785156 219.199219 401.785156 223.46875 L 401.785156 242.398438 L 392.453125 242.398438 L 392.453125 223.335938 C 392.453125 219.394531 392.71875 214.855469 386.800781 214.855469 C 384.964844 214.855469 380.492188 216.039063 380.492188 222.675781 L 380.492188 242.398438 L 371.15625 242.398438 L 371.15625 208.421875 "/>
<path style=" stroke:none;fill-rule:nonzero;fill:rgb(36.499023%,36.898804%,39.199829%);fill-opacity:1;" d="M 428.085938 208.421875 L 437.410156 208.421875 L 437.410156 242.398438 L 428.085938 242.398438 Z M 437.410156 203.160156 L 428.085938 203.160156 L 428.085938 195.46875 L 437.410156 195.46875 L 437.410156 203.160156 "/>
<path style=" stroke:none;fill-rule:nonzero;fill:rgb(36.499023%,36.898804%,39.199829%);fill-opacity:1;" d="M 465.28125 220.378906 C 464.695313 216.566406 462.261719 214.527344 458.378906 214.527344 C 452.398438 214.527344 450.425781 220.578125 450.425781 225.570313 C 450.425781 230.4375 452.335938 236.285156 458.183594 236.285156 C 462.519531 236.285156 465.015625 233.523438 465.613281 229.382813 L 474.617188 229.382813 C 473.433594 238.390625 467.191406 243.316406 458.25 243.316406 C 447.996094 243.316406 441.09375 236.089844 441.09375 225.902344 C 441.09375 215.316406 447.410156 207.496094 458.445313 207.496094 C 466.464844 207.496094 473.820313 211.699219 474.417969 220.378906 L 465.28125 220.378906 "/>
<path style=" stroke:none;fill-rule:nonzero;fill:rgb(36.499023%,36.898804%,39.199829%);fill-opacity:1;" d="M 498.414063 225.769531 C 496.835938 227.148438 493.546875 227.214844 490.65625 227.738281 C 487.765625 228.332031 485.132813 229.320313 485.132813 232.738281 C 485.132813 236.21875 487.828125 237.074219 490.851563 237.074219 C 498.148438 237.074219 498.414063 231.292969 498.414063 229.253906 Z M 476.851563 218.867188 C 477.382813 210.128906 485.199219 207.496094 492.824219 207.496094 C 499.589844 207.496094 507.738281 209.007813 507.738281 217.160156 L 507.738281 234.839844 C 507.738281 237.929688 508.074219 241.019531 508.925781 242.398438 L 499.464844 242.398438 C 499.132813 241.347656 498.867188 240.230469 498.804688 239.113281 C 495.851563 242.199219 491.511719 243.316406 487.367188 243.316406 C 480.925781 243.316406 475.804688 240.09375 475.804688 233.132813 C 475.804688 225.4375 481.585938 223.601563 487.367188 222.8125 C 493.089844 221.953125 498.414063 222.15625 498.414063 218.34375 C 498.414063 214.335938 495.652344 213.738281 492.363281 213.738281 C 488.8125 213.738281 486.519531 215.191406 486.183594 218.867188 L 476.851563 218.867188 "/>
<g clip-path="url(#clip1)" clip-rule="nonzero">
<path style=" stroke:none;fill-rule:nonzero;fill:rgb(36.499023%,36.898804%,39.199829%);fill-opacity:1;" d="M 544.746094 246.671875 C 542.710938 252.125 539.488281 254.359375 533.054688 254.359375 C 531.144531 254.359375 529.242188 254.230469 527.332031 254.03125 L 527.332031 246.34375 C 529.105469 246.472656 530.945313 246.730469 532.789063 246.671875 C 536.007813 246.34375 537.0625 242.988281 536.007813 240.292969 L 524.046875 208.421875 L 534.035156 208.421875 L 541.726563 231.683594 L 541.859375 231.683594 L 549.28125 208.421875 L 558.949219 208.421875 L 544.746094 246.671875 "/>
</g>
<path style=" stroke:none;fill-rule:nonzero;fill:rgb(36.499023%,36.898804%,39.199829%);fill-opacity:1;" d="M 583.136719 226.820313 C 583.136719 233.0625 588.003906 235.496094 593.519531 235.496094 C 597.140625 235.496094 602.65625 234.449219 602.65625 229.648438 C 602.65625 224.585938 595.625 223.734375 588.722656 221.890625 C 581.753906 220.050781 574.722656 217.355469 574.722656 208.546875 C 574.722656 198.953125 583.792969 194.351563 592.273438 194.351563 C 602.070313 194.351563 611.066406 198.621094 611.066406 209.46875 L 601.082031 209.46875 C 600.753906 203.816406 596.746094 202.371094 591.816406 202.371094 C 588.527344 202.371094 584.714844 203.753906 584.714844 207.691406 C 584.714844 211.304688 586.949219 211.769531 598.714844 214.789063 C 602.132813 215.644531 612.648438 217.816406 612.648438 228.464844 C 612.648438 237.074219 605.878906 243.519531 593.128906 243.519531 C 582.742188 243.519531 573.011719 238.390625 573.144531 226.820313 L 583.136719 226.820313 "/>
<path style=" stroke:none;fill-rule:nonzero;fill:rgb(36.499023%,36.898804%,39.199829%);fill-opacity:1;" d="M 631.644531 236.285156 C 638.015625 236.285156 639.925781 230.832031 639.925781 225.4375 C 639.925781 219.980469 638.015625 214.527344 631.644531 214.527344 C 625.335938 214.527344 623.429688 219.980469 623.429688 225.4375 C 623.429688 230.832031 625.335938 236.285156 631.644531 236.285156 Z M 631.644531 207.496094 C 642.355469 207.496094 649.257813 214.597656 649.257813 225.4375 C 649.257813 236.21875 642.355469 243.316406 631.644531 243.316406 C 621 243.316406 614.101563 236.21875 614.101563 225.4375 C 614.101563 214.597656 621 207.496094 631.644531 207.496094 "/>
<path style=" stroke:none;fill-rule:nonzero;fill:rgb(36.499023%,36.898804%,39.199829%);fill-opacity:1;" d="M 675.816406 220.378906 C 675.226563 216.566406 672.785156 214.527344 668.910156 214.527344 C 662.933594 214.527344 660.964844 220.578125 660.964844 225.570313 C 660.964844 230.4375 662.867188 236.285156 668.71875 236.285156 C 673.050781 236.285156 675.550781 233.523438 676.144531 229.382813 L 685.144531 229.382813 C 683.964844 238.390625 677.726563 243.316406 668.78125 243.316406 C 658.527344 243.316406 651.628906 236.089844 651.628906 225.902344 C 651.628906 215.316406 657.9375 207.496094 668.976563 207.496094 C 677 207.496094 684.363281 211.699219 684.949219 220.378906 L 675.816406 220.378906 "/>
<path style=" stroke:none;fill-rule:nonzero;fill:rgb(36.499023%,36.898804%,39.199829%);fill-opacity:1;" d="M 688.042969 208.421875 L 697.375 208.421875 L 697.375 242.398438 L 688.042969 242.398438 Z M 697.375 203.160156 L 688.042969 203.160156 L 688.042969 195.46875 L 697.375 195.46875 L 697.375 203.160156 "/>
<path style=" stroke:none;fill-rule:nonzero;fill:rgb(36.499023%,36.898804%,39.199829%);fill-opacity:1;" d="M 723.273438 225.769531 C 721.691406 227.148438 718.402344 227.214844 715.519531 227.738281 C 712.621094 228.332031 709.996094 229.320313 709.996094 232.738281 C 709.996094 236.21875 712.691406 237.074219 715.714844 237.074219 C 723.011719 237.074219 723.273438 231.292969 723.273438 229.253906 Z M 701.710938 218.867188 C 702.238281 210.128906 710.058594 207.496094 717.683594 207.496094 C 724.457031 207.496094 732.605469 209.007813 732.605469 217.160156 L 732.605469 234.839844 C 732.605469 237.929688 732.933594 241.019531 733.785156 242.398438 L 724.324219 242.398438 C 723.996094 241.347656 723.730469 240.230469 723.660156 239.113281 C 720.710938 242.199219 716.371094 243.316406 712.230469 243.316406 C 705.789063 243.316406 700.660156 240.09375 700.660156 233.132813 C 700.660156 225.4375 706.445313 223.601563 712.230469 222.8125 C 717.945313 221.953125 723.273438 222.15625 723.273438 218.34375 C 723.273438 214.335938 720.511719 213.738281 717.222656 213.738281 C 713.675781 213.738281 711.375 215.191406 711.050781 218.867188 L 701.710938 218.867188 "/>
<g clip-path="url(#clip2)" clip-rule="nonzero">
<path style=" stroke:none;fill-rule:nonzero;fill:rgb(36.499023%,36.898804%,39.199829%);fill-opacity:1;" d="M 737.472656 195.46875 L 746.804688 195.46875 L 746.804688 242.398438 L 737.472656 242.398438 L 737.472656 195.46875 "/>
</g>
<path style=" stroke:none;fill-rule:nonzero;fill:rgb(36.499023%,36.898804%,39.199829%);fill-opacity:1;" d="M 162.3125 242.398438 L 158.960938 242.398438 L 158.960938 0 L 162.3125 0 L 162.3125 242.398438 "/>
</g>
</svg>
